<svg width="1703" height="222" viewBox="0 0 1703 222" fill="none" xmlns="http://www.w3.org/2000/svg">
<g clip-path="url(#clip0_4035_11680)">
<path d="M404.162 128.977L312.867 3.41406H262.095V218.546H315.707V91.0059L410.167 218.546H457.81V3.41406H404.162V128.977Z" fill="#F8F2EC"/>
<path d="M490.927 218.546H545.69V134.119H619.87V88.1653H545.69V49.3674H622.746V3.41406H490.927V218.546Z" fill="#F8F2EC"/>
<path d="M647.845 218.546H782.217V172.629H702.643V131.53H779.376V85.6123H702.643V49.3674H782.217V3.41406H647.845V218.546Z" fill="#F8F2EC"/>
<path d="M967.397 72.4852C967.397 28.5454 932.302 3.44727 881.243 3.44727H810.192V218.579H865.53V141.523L924.32 218.579H991.668L923.205 133.253C950.029 122.394 967.433 101.287 967.433 72.4852H967.397ZM880.955 99.8486H865.566V48.7893H880.955C899.509 48.7893 910.62 58.7855 910.62 74.1751C910.62 89.5648 899.509 99.8486 880.955 99.8486Z" fill="#F8F2EC"/>
<path d="M999.363 218.546H1133.77V172.629H1054.16V131.53H1130.89V85.6123H1054.16V49.3674H1133.77V3.41406H999.363V218.546Z" fill="#F8F2EC"/>
<path d="M1303.81 128.977L1212.52 3.41406H1161.71V218.546H1215.36V91.0059L1309.78 218.546H1357.46V3.41406H1303.81V128.977Z" fill="#F8F2EC"/>
<path d="M1379.68 111C1379.68 172.055 1430.2 222 1492.95 222C1510.35 222 1527.75 218.584 1542.61 211.716V149.798C1532.32 160.909 1515.21 169.502 1494.1 169.502C1460.16 169.502 1435.6 144.692 1435.6 111C1435.6 77.3081 1460.12 52.4976 1494.1 52.4976C1515.21 52.4976 1532.32 61.0554 1542.61 72.2021V10.2838C1527.75 3.73955 1510.35 0 1492.95 0C1430.17 0 1379.68 49.9446 1379.68 111Z" fill="#F8F2EC"/>
<path d="M1702.69 49.3674V3.41406H1568.31V218.546H1702.69V172.629H1623.08V131.53H1699.85V85.6123H1623.08V49.3674H1702.69Z" fill="#F8F2EC"/>
<path d="M228.978 3.41406H173.065V218.546H228.978V3.41406Z" fill="#F8F2EC"/>
<path d="M144.623 3.41406H104.962V218.546H144.623V3.41406Z" fill="#F8F2EC"/>
<path d="M78.3535 3.41406H47.9337V218.546H78.3535V3.41406Z" fill="#F8F2EC"/>
<path d="M22.4044 3.41406H0.650269V218.546H22.4044V3.41406Z" fill="#F8F2EC"/>
</g>
<defs>
<clipPath id="clip0_4035_11680">
<rect width="1702.04" height="222" fill="white" transform="translate(0.650269)"/>
</clipPath>
</defs>
</svg>
